<svg xmlns="http://www.w3.org/2000/svg" width="24" height="24" viewBox="-0.75 -0.75 24 24"><title>type-cursor</title><path fill="none" stroke="currentColor" stroke-linecap="round" stroke-linejoin="round" stroke-width="1.5" d="M2.109375 6.32625h18.28125s1.40625 0 1.40625 1.40625v7.03125s0 1.40625 -1.40625 1.40625H2.109375s-1.40625 0 -1.40625 -1.40625v-7.03125s0 -1.40625 1.40625 -1.40625"/><path fill="none" stroke="currentColor" stroke-linecap="round" stroke-linejoin="round" stroke-width="1.5" d="m16.171875 17.57625 0 -12.65625"/><path fill="none" stroke="currentColor" stroke-linecap="round" stroke-linejoin="round" stroke-width="1.5" d="M11.953125 21.795a4.21875 4.21875 0 0 0 4.21875 -4.21875 4.21875 4.21875 0 0 0 4.21875 4.21875"/><path fill="none" stroke="currentColor" stroke-linecap="round" stroke-linejoin="round" stroke-width="1.5" d="M11.953125 0.70125a4.21875 4.21875 0 0 1 4.21875 4.21875 4.21875 4.21875 0 0 1 4.21875 -4.21875"/></svg>