<svg xmlns="http://www.w3.org/2000/svg" width="24" height="24" fill="none" viewBox="-0.75 -0.75 24 24"><path stroke="currentColor" stroke-linecap="round" stroke-linejoin="round" stroke-width="1.5" d="M17.578125 4.21875H2.109375A1.40625 1.40625 0 0 0 0.703125 5.625v8.4375a1.40625 1.40625 0 0 0 1.40625 1.40625h15.46875a1.40625 1.40625 0 0 0 1.40625 -1.40625V5.625a1.40625 1.40625 0 0 0 -1.40625 -1.40625Z"/><path stroke="currentColor" stroke-width="1.5" d="M3.8671875 7.734375a0.3515625 0.3515625 0 1 1 0 -0.703125"/><path stroke="currentColor" stroke-width="1.5" d="M3.8671875 7.734375a0.3515625 0.3515625 0 1 0 0 -0.703125"/><path stroke="currentColor" stroke-width="1.5" d="M15.8203125 12.65625a0.3515625 0.3515625 0 0 1 0 -0.703125"/><path stroke="currentColor" stroke-width="1.5" d="M15.8203125 12.65625a0.3515625 0.3515625 0 0 0 0 -0.703125"/><path stroke="currentColor" stroke-linecap="round" stroke-linejoin="round" stroke-width="1.5" d="M9.84375 12.65625a2.8125 2.8125 0 1 0 0 -5.625 2.8125 2.8125 0 0 0 0 5.625Z"/><path stroke="currentColor" stroke-linecap="round" stroke-linejoin="round" stroke-width="1.5" d="M21.796875 8.4375v8.4375a1.40625 1.40625 0 0 1 -1.40625 1.40625H4.921875"/></svg>