<svg xmlns="http://www.w3.org/2000/svg" width="24" height="24" viewBox="-0.75 -0.75 24 24"><path fill="none" stroke="currentColor" stroke-linecap="round" stroke-linejoin="round" stroke-width="1.5" d="M10.546875 16.171875a5.625 5.625 0 1 0 11.25 0 5.625 5.625 0 1 0 -11.25 0Z"/><path fill="none" stroke="currentColor" stroke-linecap="round" stroke-linejoin="round" stroke-width="1.5" d="m18.67875 14.536875 -2.7234374999999997 3.6309375000000004a0.705 0.705 0 0 1 -1.0603125 0.0759375l-1.40625 -1.40625"/><path fill="none" stroke="currentColor" stroke-linecap="round" stroke-linejoin="round" stroke-width="1.5" d="M7.734375 14.765625h-5.625a1.40625 1.40625 0 0 1 -1.40625 -1.40625v-11.25a1.40625 1.40625 0 0 1 1.40625 -1.40625h16.875a1.40625 1.40625 0 0 1 1.40625 1.40625V8.4375"/><path fill="none" stroke="currentColor" stroke-linecap="round" stroke-linejoin="round" stroke-width="1.5" d="m20.0728125 1.21875 -7.635 5.8725000000000005a3.10125 3.10125 0 0 1 -3.781875 0L1.0209375 1.21875"/></svg>