<svg xmlns="http://www.w3.org/2000/svg" id="Astronomy-Planet-Ring--Streamline-Ultimate" width="24" height="24" viewBox="0 0 24 24"><path fill="none" stroke="currentColor" stroke-linecap="round" stroke-linejoin="round" stroke-width="1.5" d="M5.628 19.347A9.751 9.751 0 1 1 19.24 5.488"/><path fill="none" stroke="currentColor" stroke-linecap="round" stroke-linejoin="round" stroke-width="1.5" d="M21.567 11.586a9.751 9.751 0 0 1 -10.12 9.971"/><path fill="none" stroke="currentColor" stroke-linecap="round" stroke-linejoin="round" stroke-width="1.5" d="M3.147 16.273c-1.934 3.015 -2.684 5.443 -1.742 6.386 1.631 1.631 7.712 -1.807 13.583 -7.677S24.3 3.03 22.665 1.4c-0.939 -0.939 -3.379 -0.171 -6.377 1.745"/><path fill="none" stroke="currentColor" stroke-linecap="round" stroke-linejoin="round" stroke-width="1.5" d="M11.07 7.689a1.875 1.875 0 1 0 3.75 0 1.875 1.875 0 1 0 -3.75 0Z"/><path fill="none" stroke="currentColor" stroke-linecap="round" stroke-linejoin="round" stroke-width="1.5" d="M2.783 8.147a3.75 3.75 0 1 1 0.787 7.417 4.191 4.191 0 0 1 -0.8 -0.107"/></svg>