<svg xmlns="http://www.w3.org/2000/svg" width="24" height="24" class="uil-default" preserveAspectRatio="xMidYMid" viewBox="0 0 100 100"><title>spinner</title><rect width="7" height="20" x="46.5" y="40" fill="#fefefe" rx="5" ry="5" transform="translate(0 -40)"><animate attributeName="opacity" begin="0s" dur="1s" from="1" repeatCount="indefinite" to="0"/></rect><rect width="7" height="20" x="46.5" y="40" fill="#fefefe" rx="5" ry="5" transform="rotate(30 124.641 70)"><animate attributeName="opacity" begin="0.08333333333333333s" dur="1s" from="1" repeatCount="indefinite" to="0"/></rect><rect width="7" height="20" x="46.5" y="40" fill="#fefefe" rx="5" ry="5" transform="rotate(60 84.641 70)"><animate attributeName="opacity" begin="0.16666666666666666s" dur="1s" from="1" repeatCount="indefinite" to="0"/></rect><rect width="7" height="20" x="46.5" y="40" fill="#fefefe" rx="5" ry="5" transform="rotate(90 70 70)"><animate attributeName="opacity" begin="0.25s" dur="1s" from="1" repeatCount="indefinite" to="0"/></rect><rect width="7" height="20" x="46.5" y="40" fill="#fefefe" rx="5" ry="5" transform="rotate(120 61.547 70)"><animate attributeName="opacity" begin="0.3333333333333333s" dur="1s" from="1" repeatCount="indefinite" to="0"/></rect><rect width="7" height="20" x="46.5" y="40" fill="#fefefe" rx="5" ry="5" transform="rotate(150 55.359 70)"><animate attributeName="opacity" begin="0.4166666666666667s" dur="1s" from="1" repeatCount="indefinite" to="0"/></rect><rect width="7" height="20" x="46.5" y="40" fill="#fefefe" rx="5" ry="5" transform="rotate(180 50 70)"><animate attributeName="opacity" begin="0.5s" dur="1s" from="1" repeatCount="indefinite" to="0"/></rect><rect width="7" height="20" x="46.5" y="40" fill="#fefefe" rx="5" ry="5" transform="rotate(-150 44.641 70)"><animate attributeName="opacity" begin="0.5833333333333334s" dur="1s" from="1" repeatCount="indefinite" to="0"/></rect><rect width="7" height="20" x="46.5" y="40" fill="#fefefe" rx="5" ry="5" transform="rotate(-120 38.453 70)"><animate attributeName="opacity" begin="0.6666666666666666s" dur="1s" from="1" repeatCount="indefinite" to="0"/></rect><rect width="7" height="20" x="46.5" y="40" fill="#fefefe" rx="5" ry="5" transform="rotate(-90 30 70)"><animate attributeName="opacity" begin="0.75s" dur="1s" from="1" repeatCount="indefinite" to="0"/></rect><rect width="7" height="20" x="46.5" y="40" fill="#fefefe" rx="5" ry="5" transform="rotate(-60 15.359 70)"><animate attributeName="opacity" begin="0.8333333333333334s" dur="1s" from="1" repeatCount="indefinite" to="0"/></rect><rect width="7" height="20" x="46.5" y="40" fill="#fefefe" rx="5" ry="5" transform="rotate(-30 -24.641 70)"><animate attributeName="opacity" begin="0.9166666666666666s" dur="1s" from="1" repeatCount="indefinite" to="0"/></rect></svg>